<?xml version="1.0" encoding="UTF-8"?>
<svg width="180px" height="280px" viewBox="0 0 180 280" version="1.1" xmlns="http://www.w3.org/2000/svg" xmlns:xlink="http://www.w3.org/1999/xlink">
    <title>card-background</title>
    <g id="card-background" stroke="none" stroke-width="1" fill="none" fill-rule="evenodd">
        <rect id="background" fill="#F6AD55" x="0" y="0" width="180" height="280"></rect>
        <path d="M-8.5,-37 L28.5,-37 L29.778,-34.79 L30.1379339,-35 L39,-19.453 L39,-33 L47,-33 L47,-21.208 L54.8620661,-35 L55.221,-34.79 L56.4996247,-37 L124.5,-37 L125.778,-34.79 L126.137934,-35 L135,-19.453 L135,-33 L143,-33 L143,-21.208 L150.862066,-35 L151.221,-34.79 L152.499625,-37 L189.498773,-37 L208,-5 L191.811,23 L208,51 L191.811,79 L208,107 L191.811,135 L208,163 L191.811,191 L208,219 L191.811,247 L208,275 L189.498773,307 L152.499625,307 L143,290.568 L143,303 L135,303 L135,288.836 L124.5,307 L56.4996247,307 L47,290.568 L47,303 L39,303 L39,288.836 L28.5,307 L-8.5,307 L-27,275 L-10.813,247 L-27,219 L-10.813,191 L-27,163 L-10.813,135 L-27,107 L-10.813,79 L-27,51 L-10.813,23 L-27,-5 L-8.5,-37 Z M53.974,285.937 L61.3255458,298.652174 L76.05,298.652 L53.974,285.937 Z M127.023,285.938 L104.949,298.652 L119.673518,298.652174 L127.023,285.938 Z M149.974,285.937 L157.325546,298.652174 L172.05,298.652 L149.974,285.937 Z M31.023,285.938 L8.949,298.652 L23.6735177,298.652174 L31.023,285.938 Z M168.041,279 L154.697,279 L174.563,290.442 L168.041,279 Z M26.303,279 L12.959,279 L6.436,290.442 L26.303,279 Z M71.312,279 L58.697,279 L77.61,289.893 L71.312,279 Z M122.303,279 L109.687,279 L103.389,289.893 L122.303,279 Z M183,261.452 L175.277,275 L183,288.547 L183,261.452 Z M-2,261.453 L-2,288.546 L5.722,275 L-2,261.453 Z M-10,262.288 L-17.3479642,275 L-10,287.709 L-10,262.288 Z M191,262.292 L191,287.707 L198.347126,275 L191,262.292 Z M86,263.206 L79.277,275 L86,286.793 L86,263.206 Z M95,263.207 L95,286.792 L101.722,275 L95,263.207 Z M11,274.581 L10.283,275 L11,275.419 L11,274.581 Z M102.523,258.609 L109.688,271 L124.039,271 L102.523,258.609 Z M175.413,258.068 L152.961,271 L168.041,271 L175.413,258.068 Z M5.587,258.069 L12.959,271 L28.039,271 L5.587,258.069 Z M78.476,258.607 L56.961,271 L71.312,271 L78.476,258.607 Z M170.314,251.347 L157.325081,251.347826 L150.842,262.562 L170.314,251.347 Z M74.314,251.347 L61.3250815,251.347826 L54.842,262.562 L74.314,251.347 Z M23.6739821,251.347826 L10.684,251.347 L30.156,262.561 L23.6739821,251.347826 Z M119.673982,251.347826 L106.684,251.347 L126.156,262.561 L119.673982,251.347826 Z M135,232.836 L127.046,246.595 L135,260.547 L135,232.836 Z M39,232.836 L31.046,246.595 L39,260.547 L39,232.836 Z M143,234.568 L143,258.792 L149.953,246.595 L143,234.568 Z M47,234.568 L47,258.792 L53.953,246.595 L47,234.568 Z M150.841,231.437 L157.325546,242.652174 L170.313,242.652 L150.841,231.437 Z M126.157,231.437 L106.685,242.652 L119.673518,242.652174 L126.157,231.437 Z M30.157,231.437 L10.685,242.652 L23.6735177,242.652174 L30.157,231.437 Z M54.841,231.437 L61.3255458,242.652174 L74.313,242.652 L54.841,231.437 Z M28.039,223 L12.958,223 L5.587,235.93 L28.039,223 Z M168.041,223 L152.961,223 L175.412,235.93 L168.041,223 Z M71.312,223 L56.961,223 L78.476,235.391 L71.312,223 Z M124.039,223 L109.687,223 L102.523,235.39 L124.039,223 Z M183,205.452 L175.277,219 L183,232.547 L183,205.452 Z M-2,205.453 L-2,232.546 L5.722,219 L-2,205.453 Z M-10,206.289 L-17.3479642,219 L-10,231.71 L-10,206.289 Z M191,206.292 L191,231.707 L198.347126,219 L191,206.292 Z M86,207.206 L79.277,219 L86,230.793 L86,207.206 Z M95,207.207 L95,230.792 L101.722,219 L95,207.207 Z M11,218.581 L10.283,219 L11,219.419 L11,218.581 Z M103.39,204.107 L109.688,215 L122.303,215 L103.39,204.107 Z M6.436,203.558 L12.959,215 L26.303,215 L6.436,203.558 Z M77.609,204.107 L58.697,215 L71.312,215 L77.609,204.107 Z M174.563,203.558 L154.697,215 L168.041,215 L174.563,203.558 Z M76.051,195.347 L61.3250815,195.347826 L53.975,208.061 L76.051,195.347 Z M172.051,195.347 L157.325081,195.347826 L149.975,208.061 L172.051,195.347 Z M23.6739821,195.347826 L8.949,195.347 L31.023,208.06 L23.6739821,195.347826 Z M119.673982,195.347826 L104.949,195.347 L127.023,208.06 L119.673982,195.347826 Z M47,202.792 L53.953,190.595 L47,178.568 L47,202.792 Z M143,202.792 L149.953,190.595 L143,178.568 L143,202.792 Z M31.023,173.938 L8.949,186.652 L23.6735177,186.652174 L31.023,173.938 Z M53.974,173.937 L61.3255458,186.652174 L76.05,186.652 L53.974,173.937 Z M149.974,173.937 L157.325546,186.652174 L172.05,186.652 L149.974,173.937 Z M127.023,173.938 L104.949,186.652 L119.673518,186.652174 L127.023,173.938 Z M26.303,167 L12.959,167 L6.436,178.442 L26.303,167 Z M168.041,167 L154.697,167 L174.563,178.442 L168.041,167 Z M122.303,167 L109.687,167 L103.389,177.893 L122.303,167 Z M71.312,167 L58.697,167 L77.61,177.893 L71.312,167 Z M183,149.452 L175.277,163 L183,176.547 L183,149.452 Z M-2,149.453 L-2,176.546 L5.722,163 L-2,149.453 Z M-10,150.288 L-17.3479642,163 L-10,175.709 L-10,150.288 Z M191,150.292 L191,175.707 L198.347126,163 L191,150.292 Z M86,151.206 L79.277,163 L86,174.793 L86,151.206 Z M95,151.207 L95,174.792 L101.722,163 L95,151.207 Z M11,162.581 L10.283,163 L11,163.419 L11,162.581 Z M102.523,146.609 L109.688,159 L124.039,159 L102.523,146.609 Z M5.587,146.069 L12.959,159 L28.039,159 L5.587,146.069 Z M78.477,146.606 L56.961,159 L71.312,159 L78.477,146.606 Z M175.413,146.068 L152.961,159 L168.041,159 L175.413,146.068 Z M170.314,139.347 L157.325081,139.347826 L150.842,150.562 L170.314,139.347 Z M74.314,139.347 L61.3250815,139.347826 L54.842,150.562 L74.314,139.347 Z M23.6739821,139.347826 L10.684,139.347 L30.156,150.561 L23.6739821,139.347826 Z M119.673982,139.347826 L106.684,139.347 L126.156,150.561 L119.673982,139.347826 Z M135,120.836 L127.046,134.595 L135,148.547 L135,120.836 Z M39,120.836 L31.046,134.595 L39,148.547 L39,120.836 Z M47,122.568 L47,146.792 L53.953,134.595 L47,122.568 Z M143,122.568 L143,146.792 L149.953,134.595 L143,122.568 Z M30.157,119.437 L10.685,130.652 L23.6735177,130.652174 L30.157,119.437 Z M150.841,119.437 L157.325546,130.652174 L170.313,130.652 L150.841,119.437 Z M126.157,119.437 L106.685,130.652 L119.673518,130.652174 L126.157,119.437 Z M54.841,119.437 L61.3255458,130.652174 L74.313,130.652 L54.841,119.437 Z M28.039,111 L12.958,111 L5.587,123.93 L28.039,111 Z M168.041,111 L152.961,111 L175.412,123.93 L168.041,111 Z M71.312,111 L56.961,111 L78.476,123.391 L71.312,111 Z M124.039,111 L109.687,111 L102.523,123.39 L124.039,111 Z M183,93.452 L175.277,107 L183,120.547 L183,93.452 Z M-2,93.453 L-2,120.546 L5.722,107 L-2,93.453 Z M-10,94.289 L-17.3479642,107 L-10,119.71 L-10,94.289 Z M191,94.292 L191,119.707 L198.347126,107 L191,94.292 Z M86,95.206 L79.277,107 L86,118.793 L86,95.206 Z M95,95.207 L95,118.792 L101.722,107 L95,95.207 Z M11,106.581 L10.283,107 L11,107.419 L11,106.581 Z M103.39,92.107 L109.688,103 L122.303,103 L103.39,92.107 Z M77.609,92.107 L58.697,103 L71.312,103 L77.609,92.107 Z M6.436,91.558 L12.959,103 L26.303,103 L6.436,91.558 Z M174.563,91.558 L154.697,103 L168.041,103 L174.563,91.558 Z M76.051,83.347 L61.3250815,83.3478261 L53.975,96.061 L76.051,83.347 Z M172.051,83.347 L157.325081,83.3478261 L149.975,96.061 L172.051,83.347 Z M23.6739821,83.3478261 L8.949,83.347 L31.023,96.06 L23.6739821,83.3478261 Z M119.673982,83.3478261 L104.949,83.347 L127.023,96.06 L119.673982,83.3478261 Z M135,64.836 L127.046,78.595 L135,92.547 L135,64.836 Z M39,64.836 L31.046,78.595 L39,92.547 L39,64.836 Z M143,66.568 L143,90.792 L149.953,78.595 L143,66.568 Z M47,66.568 L47,90.792 L53.953,78.595 L47,66.568 Z M127.023,61.938 L104.949,74.652 L119.673518,74.6521739 L127.023,61.938 Z M31.023,61.938 L8.949,74.652 L23.6735177,74.6521739 L31.023,61.938 Z M53.974,61.937 L61.3255458,74.6521739 L76.05,74.652 L53.974,61.937 Z M149.974,61.937 L157.325546,74.6521739 L172.05,74.652 L149.974,61.937 Z M26.303,55 L12.959,55 L6.436,66.442 L26.303,55 Z M168.041,55 L154.697,55 L174.563,66.442 L168.041,55 Z M122.303,55 L109.687,55 L103.388,65.893 L122.303,55 Z M71.312,55 L58.697,55 L77.61,65.893 L71.312,55 Z M183,37.452 L175.277,51 L183,64.547 L183,37.452 Z M-2,37.453 L-2,64.546 L5.722,51 L-2,37.453 Z M-10,38.288 L-17.3479642,51 L-10,63.709 L-10,38.288 Z M191,38.292 L191,63.707 L198.347126,51 L191,38.292 Z M86,39.206 L79.277,51 L86,62.793 L86,39.206 Z M95,39.207 L95,62.792 L101.722,51 L95,39.207 Z M11,50.581 L10.283,51 L11,51.419 L11,50.581 Z M175.413,34.068 L152.961,47 L168.041,47 L175.413,34.068 Z M102.523,34.609 L109.688,47 L124.039,47 L102.523,34.609 Z M78.476,34.607 L56.961,47 L71.312,47 L78.476,34.607 Z M5.587,34.069 L12.959,47 L28.039,47 L5.587,34.069 Z M74.314,27.347 L61.3250815,27.3478261 L54.842,38.562 L74.314,27.347 Z M170.314,27.347 L157.325081,27.3478261 L150.842,38.562 L170.314,27.347 Z M23.6739821,27.3478261 L10.684,27.347 L30.156,38.561 L23.6739821,27.3478261 Z M119.673982,27.3478261 L106.684,27.347 L126.156,38.561 L119.673982,27.3478261 Z M39,8.836 L31.046,22.595 L39,36.547 L39,8.836 Z M135,8.836 L127.046,22.595 L135,36.547 L135,8.836 Z M143,10.568 L143,34.792 L149.953,22.595 L143,10.568 Z M47,10.568 L47,34.792 L53.953,22.595 L47,10.568 Z M30.157,7.437 L10.685,18.652 L23.6735177,18.6521739 L30.157,7.437 Z M150.841,7.437 L157.325546,18.6521739 L170.313,18.652 L150.841,7.437 Z M54.841,7.437 L61.3255458,18.6521739 L74.313,18.652 L54.841,7.437 Z M126.157,7.437 L106.685,18.652 L119.673518,18.6521739 L126.157,7.437 Z M168.041,-1 L152.961,-1 L175.412,11.93 L168.041,-1 Z M28.039,-1 L12.958,-1 L5.587,11.93 L28.039,-1 Z M71.312,-1 L56.961,-1 L78.476,11.391 L71.312,-1 Z M124.039,-1 L109.687,-1 L102.523,11.39 L124.039,-1 Z M183,-18.548 L175.277,-5 L183,8.547 L183,-18.548 Z M-2,-18.547 L-2,8.546 L5.722,-5 L-2,-18.547 Z M-10,-17.711 L-17.3479642,-5 L-10,7.71 L-10,-17.711 Z M191,-17.708 L191,7.707 L198.347126,-5 L191,-17.708 Z M86,-16.794 L79.277,-5 L86,6.793 L86,-16.794 Z M95,-16.793 L95,6.792 L101.722,-5 L95,-16.793 Z M11,-5.419 L10.283,-5 L11,-4.581 L11,-5.419 Z M6.436,-20.442 L12.959,-9 L26.303,-9 L6.436,-20.442 Z M174.563,-20.442 L154.697,-9 L168.041,-9 L174.563,-20.442 Z M103.39,-19.893 L109.688,-9 L122.303,-9 L103.39,-19.893 Z M77.609,-19.893 L58.697,-9 L71.312,-9 L77.609,-19.893 Z M172.051,-28.653 L157.325081,-28.6521739 L149.975,-15.939 L172.051,-28.653 Z M76.051,-28.653 L61.3250815,-28.6521739 L53.975,-15.939 L76.051,-28.653 Z M23.6739821,-28.6521739 L8.949,-28.653 L31.023,-15.94 L23.6739821,-28.6521739 Z M119.673982,-28.6521739 L104.949,-28.653 L127.023,-15.94 L119.673982,-28.6521739 Z M135,176.836 L127.046,190.595 L135,204.547 L135,176.836 Z M39,176.836 L31.046,190.595 L39,204.547 L39,176.836 Z" id="pattern" fill="#009688" fill-rule="nonzero"></path>
    </g>
</svg>